<svg width="98" height="117" viewBox="0 0 98 117" fill="none" xmlns="http://www.w3.org/2000/svg">
<circle cx="48.5" cy="42.5" r="32.5" fill="#FF9F00"/>
<path fill-rule="evenodd" clip-rule="evenodd" d="M28.1667 42C28.1667 30.4792 37.4792 21.1667 48.9792 21.1667C60.5001 21.1667 69.8334 30.4792 69.8334 42C69.8334 53.5208 60.4793 62.8333 48.9792 62.8333C37.4792 62.8333 28.1667 53.5208 28.1667 42ZM40.2918 42L42.5001 39.7917L44.7084 42L46.9168 39.7917L44.7084 37.5833L46.9168 35.375L44.7084 33.1667L42.5001 35.375L40.2918 33.1667L38.0834 35.375L40.2918 37.5833L38.0834 39.7917L40.2918 42ZM49.0001 45.125C44.1459 45.125 40.0209 48.1667 38.3543 52.4167H59.6459C57.9793 48.1667 53.8543 45.125 49.0001 45.125ZM49.0001 58.6667C39.7917 58.6667 32.3334 51.2083 32.3334 42C32.3334 32.7917 39.7917 25.3333 49.0001 25.3333C58.2084 25.3333 65.6667 32.7917 65.6667 42C65.6667 51.2083 58.2084 58.6667 49.0001 58.6667ZM55.5001 35.375L57.7084 33.1667L59.9167 35.375L57.7084 37.5833L59.9167 39.7917L57.7084 42L55.5001 39.7917L53.2917 42L51.0834 39.7917L53.2917 37.5833L51.0834 35.375L53.2917 33.1667L55.5001 35.375Z" fill="white"/>
<circle cx="62.5" cy="8.5" r="8.5" fill="#FF9F00"/>
<circle cx="58.5" cy="101.5" r="4.5" fill="#FF9F00"/>
<circle cx="58.5" cy="73.5" r="4.5" fill="#FF9F00"/>
<circle cx="23.5" cy="91.5" r="4.5" fill="#FF9F00"/>
<circle cx="30.5" cy="17.5" r="4.5" fill="#FF9F00"/>
<circle cx="89.5" cy="69.5" r="8.5" fill="#FF9F00"/>
<circle cx="6.5" cy="54.5" r="6.5" fill="#FF9F00"/>
<circle cx="80.5" cy="114.5" r="2.5" fill="#FF9F00"/>
<circle cx="7" cy="8" r="7" fill="#FF9F00"/>
</svg>
