<svg width="36" height="34" viewBox="0 0 36 34" fill="none" xmlns="http://www.w3.org/2000/svg">
<g clip-path="url(#clip0)">
<path d="M30.4536 31.0849C33.5168 31.0849 36 28.6455 36 25.6363C36 22.627 33.5168 20.1876 30.4536 20.1876C27.3904 20.1876 24.9072 22.627 24.9072 25.6363C24.9072 28.6455 27.3904 31.0849 30.4536 31.0849Z" fill="#1A1A1A"/>
<path d="M6.92249 12.8118L23.3021 28.9028L28.8335 26.3704L32.8076 19.1954L33.1298 12.3369L31.4619 8.8567C24.8225 3.13735 14.632 2.36749 6.92249 12.8118Z" fill="#D24319"/>
<path d="M5.06832 33.9313C4.92446 33.8695 3.72096 32.7468 2.39386 31.4365C-0.664741 28.4166 -0.605363 28.7422 1.51439 26.6149C3.50083 24.6214 3.88838 23.8955 3.88731 22.1703C3.88667 21.2518 3.81143 20.7895 3.52104 19.922C2.02009 15.4382 2.91462 10.337 5.86409 6.56036C13.8806 -3.27078 26.5389 -1.27445 32.4179 7.39874C35.6805 12.23 35.932 18.7466 32.6439 23.612C30.1293 26.8456 27.0385 29.5543 23.1824 30.6836C20.2345 31.5188 17.1091 31.3712 13.6534 30.3236C12.2464 29.8971 10.6274 30.0609 9.44951 30.749C9.19775 30.8961 8.31497 31.667 7.48778 32.4621C5.99741 33.8947 5.5771 34.15 5.06832 33.9313ZM12.3267 24.486C12.3267 24.4161 11.7242 23.7649 10.9878 23.039L9.6489 21.7192L6.1495 25.1552L2.65011 28.5912L4.05381 29.9745L5.45753 31.3577L8.8921 27.9855C10.7811 26.1307 12.3267 24.556 12.3267 24.486ZM20.9909 28.8294C21.2607 28.788 21.4814 28.7179 21.4814 28.6737C21.4814 28.5359 5.40954 12.7989 5.33927 12.8679C5.30269 12.9039 5.2032 13.4893 5.11818 14.1689C4.92477 15.7151 5.09676 17.3725 5.64509 19.2466C5.85687 19.9704 6.0714 20.8871 6.12185 21.2837L6.21356 22.0048L7.67824 20.57C9.2057 19.0737 9.52783 18.9035 10.1743 19.2512C10.3151 19.327 11.475 20.4231 12.7517 21.6871C15.7208 24.6265 15.674 24.3737 13.6276 26.4113L12.1821 27.8506L12.9164 27.9354C13.3202 27.982 14.2502 28.1926 14.9831 28.4033C15.7159 28.614 16.7275 28.8406 17.231 28.9069C18.115 29.0232 19.9791 28.9848 20.9909 28.8294ZM30.3557 22.5181C33.2351 18.0875 33.4448 12.6851 30.3271 8.31491C23.7157 -0.627426 12.6701 0.683873 7.26593 8.42328C6.60174 9.39663 6.13862 10.2861 6.23934 10.395C6.28202 10.4412 10.2989 14.3913 15.1658 19.1731L24.0146 27.8673C26.4066 26.6087 28.9651 24.4329 30.3557 22.5181Z" fill="#1A1A1A"/>
<path d="M28.6593 28.8908C30.489 29.8642 32.7755 29.1962 33.7664 27.3988C34.7573 25.6014 34.0774 23.3552 32.2477 22.3817C30.418 21.4083 28.1315 22.0762 27.1406 23.8737C26.1497 25.6711 26.8297 27.9173 28.6593 28.8908Z" fill="#FF9F00"/>
<path d="M30.4536 31.0849C33.5168 31.0849 36 28.6455 36 25.6363C36 22.627 33.5168 20.1876 30.4536 20.1876C27.3904 20.1876 24.9072 22.627 24.9072 25.6363C24.9072 28.6455 27.3904 31.0849 30.4536 31.0849Z" fill="#1A1A1A"/>
<path d="M6.92249 12.8118L23.3021 28.9028L28.8335 26.3704L32.8076 19.1954L33.1298 12.3369L31.4619 8.8567C24.8225 3.13735 14.632 2.36749 6.92249 12.8118Z" fill="#D24319"/>
<path d="M5.06832 33.9313C4.92446 33.8695 3.72096 32.7468 2.39386 31.4365C-0.664741 28.4166 -0.605363 28.7422 1.51439 26.6149C3.50083 24.6214 3.88838 23.8955 3.88731 22.1703C3.88667 21.2518 3.81143 20.7895 3.52104 19.922C2.02009 15.4382 2.91462 10.337 5.86409 6.56036C13.8806 -3.27078 26.5389 -1.27445 32.4179 7.39874C35.6805 12.23 35.932 18.7466 32.6439 23.612C30.1293 26.8456 27.0385 29.5543 23.1824 30.6836C20.2345 31.5188 17.1091 31.3712 13.6534 30.3236C12.2464 29.8971 10.6274 30.0609 9.44951 30.749C9.19775 30.8961 8.31497 31.667 7.48778 32.4621C5.99741 33.8947 5.5771 34.15 5.06832 33.9313ZM12.3267 24.486C12.3267 24.4161 11.7242 23.7649 10.9878 23.039L9.6489 21.7192L6.1495 25.1552L2.65011 28.5912L4.05381 29.9745L5.45753 31.3577L8.8921 27.9855C10.7811 26.1307 12.3267 24.556 12.3267 24.486ZM20.9909 28.8294C21.2607 28.788 21.4814 28.7179 21.4814 28.6737C21.4814 28.5359 5.40954 12.7989 5.33927 12.8679C5.30269 12.9039 5.2032 13.4893 5.11818 14.1689C4.92477 15.7151 5.09676 17.3725 5.64509 19.2466C5.85687 19.9704 6.0714 20.8871 6.12185 21.2837L6.21356 22.0048L7.67824 20.57C9.2057 19.0737 9.52783 18.9035 10.1743 19.2512C10.3151 19.327 11.475 20.4231 12.7517 21.6871C15.7208 24.6265 15.674 24.3737 13.6276 26.4113L12.1821 27.8506L12.9164 27.9354C13.3202 27.982 14.2502 28.1926 14.9831 28.4033C15.7159 28.614 16.7275 28.8406 17.231 28.9069C18.115 29.0232 19.9791 28.9848 20.9909 28.8294ZM30.3557 22.5181C33.2351 18.0875 33.4448 12.6851 30.3271 8.31491C23.7157 -0.627426 12.6701 0.683873 7.26593 8.42328C6.60174 9.39663 6.13862 10.2861 6.23934 10.395C6.28202 10.4412 10.2989 14.3913 15.1658 19.1731L24.0146 27.8673C26.4066 26.6087 28.9651 24.4329 30.3557 22.5181Z" fill="#1A1A1A"/>
<path d="M28.6593 28.8908C30.489 29.8642 32.7755 29.1962 33.7664 27.3988C34.7573 25.6014 34.0774 23.3552 32.2477 22.3817C30.418 21.4083 28.1315 22.0762 27.1406 23.8737C26.1497 25.6711 26.8297 27.9173 28.6593 28.8908Z" fill="#FF9F00"/>
</g>
<defs>
<clipPath id="clip0">
<rect width="36" height="34" fill="white"/>
</clipPath>
</defs>
</svg>
