<?xml version="1.0" encoding="UTF-8" standalone="no"?>
<svg
   width="18"
   height="18"
   viewBox="0 0 18 18"
   fill="none"
   version="1.1"
   id="svg4"
   sodipodi:docname="logoff.svg"
   inkscape:version="1.1 (c68e22c387, 2021-05-23)"
   xmlns:inkscape="http://www.inkscape.org/namespaces/inkscape"
   xmlns:sodipodi="http://sodipodi.sourceforge.net/DTD/sodipodi-0.dtd"
   xmlns="http://www.w3.org/2000/svg"
   xmlns:svg="http://www.w3.org/2000/svg">
  <defs
     id="defs8" />
  <sodipodi:namedview
     id="namedview6"
     pagecolor="#ffffff"
     bordercolor="#666666"
     borderopacity="1.0"
     inkscape:pageshadow="2"
     inkscape:pageopacity="0.0"
     inkscape:pagecheckerboard="0"
     showgrid="false"
     inkscape:zoom="1.6597368"
     inkscape:cx="32.234027"
     inkscape:cy="147.91502"
     inkscape:window-width="1920"
     inkscape:window-height="1027"
     inkscape:window-x="-8"
     inkscape:window-y="-8"
     inkscape:window-maximized="1"
     inkscape:current-layer="svg4" />
  <path
     fill-rule="evenodd"
     clip-rule="evenodd"
     d="M8 0H10V10H8V0ZM13.41 3.59L14.83 2.17C16.77 3.82 18 6.26 18 9C18 13.97 13.97 18 9 18C4.03 18 0 13.97 0 9C0 6.26 1.23 3.82 3.17 2.17L4.58 3.58C3.01 4.86 2 6.81 2 9C2 12.87 5.13 16 9 16C12.87 16 16 12.87 16 9C16 6.81 14.99 4.86 13.41 3.59Z"
     fill="black"
     id="path2"
     style="fill:#d34a1f;fill-opacity:1" />
</svg>
