<svg width="75" height="53" viewBox="0 0 75 53" fill="none" xmlns="http://www.w3.org/2000/svg">
<path fill-rule="evenodd" clip-rule="evenodd" d="M26.3751 26.5C33.5322 26.5 39.3542 20.6779 39.3542 13.5209C39.3542 6.36377 33.5322 0.541687 26.3751 0.541687C19.218 0.541687 13.3959 6.36377 13.3959 13.5209C13.3959 20.6779 19.218 26.5 26.3751 26.5ZM0.416748 45.9688C0.416748 37.3284 17.6976 32.9896 26.3751 32.9896C35.0526 32.9896 52.3334 37.3284 52.3334 45.9688V52.4584H0.416748V45.9688ZM26.375 40.4063C19.7371 40.4063 12.2092 42.8909 9.09416 45.0417H43.6558C40.5408 42.8909 33.0129 40.4063 26.375 40.4063ZM31.9376 13.5209C31.9376 10.4429 29.453 7.95835 26.3751 7.95835C23.2972 7.95835 20.8126 10.4429 20.8126 13.5209C20.8126 16.5988 23.2972 19.0834 26.3751 19.0834C29.453 19.0834 31.9376 16.5988 31.9376 13.5209ZM52.4819 33.2121C56.7835 36.3271 59.7502 40.4804 59.7502 45.9688V52.4583H74.5835V45.9688C74.5835 38.4779 61.6044 34.2133 52.4819 33.2121ZM61.6042 13.5209C61.6042 20.6779 55.7822 26.5 48.6251 26.5C46.6226 26.5 44.7684 26.0179 43.0626 25.2021C45.3988 21.9017 46.7709 17.8596 46.7709 13.5209C46.7709 9.1821 45.3988 5.14002 43.0626 1.8396C44.7684 1.02377 46.6226 0.541687 48.6251 0.541687C55.7822 0.541687 61.6042 6.36377 61.6042 13.5209Z" fill="#FF9F00"/>
</svg>
