<svg width="14" height="14" viewBox="0 0 14 14" fill="none" xmlns="http://www.w3.org/2000/svg">
<path fill-rule="evenodd" clip-rule="evenodd" d="M6.74021 0.333328C4.94638 0.333328 3.49346 1.82499 3.49346 3.66666C3.49346 5.50833 4.94638 6.99999 6.74021 6.99999C8.53404 6.99999 9.98696 5.50833 9.98696 3.66666C9.98696 1.82499 8.53404 0.333328 6.74021 0.333328ZM8.44475 3.66666C8.44475 2.7 7.68176 1.91666 6.74021 1.91666C5.79865 1.91666 5.03566 2.7 5.03566 3.66666C5.03566 4.63333 5.79865 5.41666 6.74021 5.41666C7.68176 5.41666 8.44475 4.63333 8.44475 3.66666ZM11.6915 11.1667C11.6915 10.6333 9.15092 9.41666 6.74021 9.41666C4.32949 9.41666 1.78891 10.6333 1.78891 11.1667L1.78891 12.0833L11.6915 12.0833V11.1667ZM0.246704 11.1667C0.246704 8.95 4.573 7.83333 6.74021 7.83333C8.90742 7.83333 13.2337 8.95 13.2337 11.1667V13.6667L0.246704 13.6667L0.246704 11.1667Z" fill="#FF9F00"/>
</svg>
