<?xml version="1.0" encoding="UTF-8" standalone="no"?>
<svg
   width="19.454287"
   height="20"
   viewBox="0 0 19.454287 20"
   fill="none"
   version="1.1"
   id="svg4"
   sodipodi:docname="settings.svg"
   inkscape:version="1.1 (c68e22c387, 2021-05-23)"
   xmlns:inkscape="http://www.inkscape.org/namespaces/inkscape"
   xmlns:sodipodi="http://sodipodi.sourceforge.net/DTD/sodipodi-0.dtd"
   xmlns="http://www.w3.org/2000/svg"
   xmlns:svg="http://www.w3.org/2000/svg">
  <defs
     id="defs8" />
  <sodipodi:namedview
     id="namedview6"
     pagecolor="#ffffff"
     bordercolor="#666666"
     borderopacity="1.0"
     inkscape:pageshadow="2"
     inkscape:pageopacity="0.0"
     inkscape:pagecheckerboard="0"
     showgrid="false"
     fit-margin-top="0"
     fit-margin-left="0"
     fit-margin-right="0"
     fit-margin-bottom="0"
     inkscape:zoom="3.5208333"
     inkscape:cx="71.431953"
     inkscape:cy="30.532544"
     inkscape:window-width="1920"
     inkscape:window-height="1027"
     inkscape:window-x="-8"
     inkscape:window-y="-8"
     inkscape:window-maximized="1"
     inkscape:current-layer="settings_24px" />
  <g
     id="settings_24px"
     transform="translate(-2.2728284,-2)">
    <path
       id="icon/action/settings_24px"
       fill-rule="evenodd"
       clip-rule="evenodd"
       d="m 19.5022,12 c 0,0.34 -0.03,0.66 -0.07,0.98 l 2.11,1.65 c 0.19,0.15 0.24,0.42 0.12,0.64 l -2,3.46 c -0.09,0.16 -0.26,0.25 -0.43,0.25 -0.06,0 -0.12,-0.01 -0.18,-0.03 l -2.49,-1 c -0.52,0.39 -1.08,0.73 -1.69,0.98 l -0.38,2.65 c -0.03,0.24 -0.24,0.42 -0.49,0.42 h -4 C 9.75216,22 9.54216,21.82 9.51216,21.58 l -0.38,-2.65 c -0.61,-0.25 -1.17,-0.58 -1.69,-0.98 l -2.49,1 c -0.05,0.02 -0.11,0.03 -0.17,0.03 -0.18,0 -0.35,-0.09 -0.44,-0.25 l -2,-3.46 c -0.12,-0.22 -0.07,-0.49 0.12,-0.64 l 2.11,-1.65 c -0.04,-0.32 -0.07,-0.65 -0.07,-0.98 0,-0.33 0.03,-0.66 0.07,-0.98 l -2.11,-1.65 c -0.19,-0.15 -0.25,-0.42 -0.12,-0.64 l 2,-3.46 c 0.09,-0.16 0.26,-0.25 0.43,-0.25 0.06,0 0.12,0.01 0.18,0.03 l 2.49,1 c 0.52,-0.39 1.08,-0.73 1.69,-0.98 l 0.38,-2.65 C 9.54216,2.18 9.75216,2 10.0022,2 h 4 c 0.25,0 0.46,0.18 0.49,0.42 l 0.38,2.65 c 0.61,0.25 1.17,0.58 1.69,0.98 l 2.49,-1 c 0.05,-0.02 0.11,-0.03 0.17,-0.03 0.18,0 0.35,0.09 0.44,0.25 l 2,3.46 c 0.12,0.22 0.07,0.49 -0.12,0.64 l -2.11,1.65 c 0.04,0.32 0.07,0.64 0.07,0.98 z m -2,0 c 0,-0.21 -0.01,-0.42 -0.05,-0.73 l -0.14,-1.13 0.89,-0.7 1.07,-0.85 -0.7,-1.21 -1.27,0.51 -1.06,0.43 -0.91,-0.7 c -0.4,-0.3 -0.8,-0.53 -1.23,-0.71 l -1.06,-0.43 -0.16,-1.13 -0.19,-1.35 h -1.39 l -0.2,1.35 -0.16,1.13 -1.06004,0.43 c -0.41,0.17 -0.82,0.41 -1.25,0.73 l -0.9,0.68 -1.04,-0.42 -1.27,-0.51 -0.7,1.21 1.08,0.84 0.89,0.7 -0.14,1.13 c -0.03,0.3 -0.05,0.53 -0.05,0.73 0,0.2 0.02,0.43 0.05,0.74 l 0.14,1.13 -0.89,0.7 -1.08,0.84 0.7,1.21 1.27,-0.51 1.06,-0.43 0.91,0.7 c 0.4,0.3 0.8,0.53 1.23,0.71 l 1.06004,0.43 0.16,1.13 0.19,1.35 h 1.4 l 0.2,-1.35 0.16,-1.13 1.06,-0.43 c 0.41,-0.17 0.82,-0.41 1.25,-0.73 l 0.9,-0.68 1.04,0.42 1.27,0.51 0.7,-1.21 -1.08,-0.84 -0.89,-0.7 0.14,-1.13 c 0.03,-0.3 0.05,-0.52 0.05,-0.73 z m -5.5,-4 c -2.21004,0 -4.00004,1.79 -4.00004,4 0,2.21 1.79,4 4.00004,4 2.21,0 4,-1.79 4,-4 0,-2.21 -1.79,-4 -4,-4 z m -2,4 c 0,1.1 0.9,2 2,2 1.1,0 2,-0.9 2,-2 0,-1.1 -0.9,-2 -2,-2 -1.1,0 -2,0.9 -2,2 z"
       fill="#000000" />
  </g>
</svg>
