<svg width="18" height="20" viewBox="0 0 18 20" fill="none" xmlns="http://www.w3.org/2000/svg">
<path fill-rule="evenodd" clip-rule="evenodd" d="M13.04 14.89C13.56 14.42 14.24 14.12 15 14.12C16.61 14.12 17.92 15.43 17.92 17.04C17.92 18.65 16.61 19.96 15 19.96C13.39 19.96 12.08 18.65 12.08 17.04C12.08 16.82 12.11 16.6 12.16 16.39L5.04 12.23C4.5 12.73 3.79 13.04 3 13.04C1.34 13.04 0 11.7 0 10.04C0 8.38 1.34 7.04 3 7.04C3.79 7.04 4.5 7.35 5.04 7.85L12.09 3.74C12.04 3.51 12 3.28 12 3.04C12 1.38 13.34 0.0400009 15 0.0400009C16.66 0.0400009 18 1.38 18 3.04C18 4.7 16.66 6.04 15 6.04C14.21 6.04 13.5 5.73 12.96 5.23L5.91 9.34C5.96 9.57 6 9.8 6 10.04C6 10.28 5.96 10.51 5.91 10.74L13.04 14.89ZM16 3.04C16 2.49 15.55 2.04 15 2.04C14.45 2.04 14 2.49 14 3.04C14 3.59 14.45 4.04 15 4.04C15.55 4.04 16 3.59 16 3.04ZM3 11.04C2.45 11.04 2 10.59 2 10.04C2 9.49 2.45 9.04 3 9.04C3.55 9.04 4 9.49 4 10.04C4 10.59 3.55 11.04 3 11.04ZM14 17.06C14 17.61 14.45 18.06 15 18.06C15.55 18.06 16 17.61 16 17.06C16 16.51 15.55 16.06 15 16.06C14.45 16.06 14 16.51 14 17.06Z" fill="#FF9F00"/>
</svg>
