<svg width="117" height="125" viewBox="0 0 117 125" fill="none" xmlns="http://www.w3.org/2000/svg">
<circle cx="67.5" cy="42.5" r="32.5" fill="#FF9F00"/>
<circle cx="108.5" cy="8.5" r="8.5" fill="#FF9F00"/>
<circle cx="104.5" cy="71.5" r="4.5" fill="#FF9F00"/>
<circle cx="72.5" cy="73.5" r="4.5" fill="#FF9F00"/>
<circle cx="44.5" cy="17.5" r="4.5" fill="#FF9F00"/>
<circle cx="27.5" cy="71.5" r="8.5" fill="#FF9F00"/>
<circle cx="47.5" cy="118.5" r="6.5" fill="#FF9F00"/>
<circle cx="75.5" cy="106.5" r="2.5" fill="#FF9F00"/>
<circle cx="7" cy="29" r="7" fill="#FF9F00"/>
<path fill-rule="evenodd" clip-rule="evenodd" d="M67.9792 21.1667C56.4792 21.1667 47.1667 30.4792 47.1667 42C47.1667 53.5208 56.4792 62.8333 67.9792 62.8333C79.4793 62.8333 88.8334 53.5208 88.8334 42C88.8334 30.4792 79.5001 21.1667 67.9792 21.1667ZM68.0001 58.6667C58.7917 58.6667 51.3334 51.2083 51.3334 42C51.3334 32.7917 58.7917 25.3333 68.0001 25.3333C77.2084 25.3333 84.6667 32.7917 84.6667 42C84.6667 51.2083 77.2084 58.6667 68.0001 58.6667ZM72.2917 39.9167L70.0834 37.7083L74.5001 33.2917L78.9167 37.7083L76.7084 39.9167L74.5001 37.7083L72.2917 39.9167ZM61.5001 37.7083L63.7084 39.9167L65.9168 37.7083L61.5001 33.2917L57.0834 37.7083L59.2918 39.9167L61.5001 37.7083ZM78.6459 46.1667C76.9793 50.4167 72.8543 53.4583 68.0001 53.4583C63.1459 53.4583 59.0209 50.4167 57.3543 46.1667H78.6459Z" fill="white"/>
</svg>
