<svg width="13" height="15" viewBox="0 0 13 15" fill="none" xmlns="http://www.w3.org/2000/svg">
<path fill-rule="evenodd" clip-rule="evenodd" d="M4.625 0.940613H8.375V2.19061H4.625V0.940613ZM5.875 9.06561V5.31561H7.125V9.06561H5.875ZM10.8938 4.92812L11.7812 4.04062C11.5125 3.72187 11.2188 3.42187 10.9 3.15937L10.0125 4.04687C9.04375 3.27187 7.825 2.80937 6.5 2.80937C3.39375 2.80937 0.875 5.32812 0.875 8.43437C0.875 11.5406 3.3875 14.0594 6.5 14.0594C9.6125 14.0594 12.125 11.5406 12.125 8.43437C12.125 7.11562 11.6625 5.89687 10.8938 4.92812ZM2.125 8.44061C2.125 10.8594 4.08125 12.8156 6.5 12.8156C8.91875 12.8156 10.875 10.8594 10.875 8.44061C10.875 6.02186 8.91875 4.06561 6.5 4.06561C4.08125 4.06561 2.125 6.02186 2.125 8.44061Z" fill="#C6C6C6"/>
</svg>
