<svg width="4" height="14" viewBox="0 0 4 14" fill="none" xmlns="http://www.w3.org/2000/svg">
<path fill-rule="evenodd" clip-rule="evenodd" d="M1.74032 3.66668C2.63318 3.66668 3.3637 2.91668 3.3637 2.00001C3.3637 1.08334 2.63318 0.333344 1.74032 0.333344C0.847463 0.333344 0.116943 1.08334 0.116943 2.00001C0.116943 2.91668 0.847463 3.66668 1.74032 3.66668ZM1.74032 5.33334C0.847463 5.33334 0.116943 6.08334 0.116943 7.00001C0.116943 7.91668 0.847463 8.66668 1.74032 8.66668C2.63318 8.66668 3.3637 7.91668 3.3637 7.00001C3.3637 6.08334 2.63318 5.33334 1.74032 5.33334ZM0.116943 12C0.116943 11.0833 0.847463 10.3333 1.74032 10.3333C2.63318 10.3333 3.3637 11.0833 3.3637 12C3.3637 12.9167 2.63318 13.6667 1.74032 13.6667C0.847463 13.6667 0.116943 12.9167 0.116943 12Z" fill="#D0CDCD"/>
</svg>
