<svg width="98" height="148" viewBox="0 0 98 148" fill="none" xmlns="http://www.w3.org/2000/svg">
<path d="M79.369 76.2331C86.7489 76.2331 92.7315 70.2506 92.7315 62.8707C92.7315 55.4908 86.7489 49.5082 79.369 49.5082C71.9891 49.5082 66.0066 55.4908 66.0066 62.8707C66.0066 70.2506 71.9891 76.2331 79.369 76.2331Z" fill="#1A1A1A"/>
<path d="M22.6778 31.4198L62.1396 70.8817L75.4661 64.6713L85.0405 47.0752L85.8168 30.2554L81.7983 21.7203C65.8027 7.69412 41.2516 5.80611 22.6778 31.4198V31.4198Z" fill="#D24319"/>
<path d="M18.2106 83.2136C17.8641 83.062 14.9646 80.3088 11.7673 77.0953C4.3985 69.6893 4.54155 70.4877 9.64849 65.2708C14.4342 60.3819 15.3679 58.6018 15.3653 54.3708C15.3638 52.1182 15.1825 50.9844 14.4829 48.857C10.8668 37.8608 13.0219 25.3506 20.1278 16.0887C39.4413 -8.02131 69.9378 -3.12548 84.1013 18.1448C91.9617 29.9929 92.5678 45.9745 84.6461 57.9065C78.5879 65.8365 71.1413 72.4794 61.8513 75.249C54.7492 77.2971 47.2195 76.9352 38.8939 74.3661C35.5042 73.3201 31.6035 73.7219 28.7658 75.4093C28.1593 75.7699 26.0325 77.6605 24.0396 79.6105C20.449 83.1239 19.4364 83.7498 18.2106 83.2136V83.2136ZM35.6975 60.0499C35.6975 59.8783 34.246 58.2814 32.4719 56.5013L29.2462 53.2646L20.8154 61.691L12.3847 70.1175L15.7665 73.5098L19.1483 76.9022L27.4229 68.632C31.974 64.0834 35.6975 60.2214 35.6975 60.0499V60.0499ZM56.5716 70.7016C57.2214 70.6 57.7531 70.4282 57.7531 70.3199C57.7531 69.9819 19.0327 31.3882 18.8634 31.5575C18.7753 31.6457 18.5356 33.0814 18.3308 34.748C17.8648 38.5398 18.2791 42.6047 19.6002 47.2006C20.1104 48.9757 20.6273 51.2238 20.7488 52.1964L20.9698 53.9648L24.4985 50.4461C28.1785 46.7766 28.9545 46.3592 30.5121 47.212C30.8513 47.3978 33.6456 50.0859 36.7216 53.1857C43.8748 60.3943 43.7619 59.7745 38.8317 64.7715L35.3493 68.3012L37.1183 68.5091C38.0912 68.6235 40.3318 69.1399 42.0974 69.6567C43.8629 70.1735 46.3 70.7292 47.513 70.8917C49.6429 71.1769 54.1338 71.0827 56.5716 70.7016V70.7016ZM79.1332 55.2238C86.0702 44.3579 86.5755 31.1092 79.0643 20.3916C63.136 -1.53871 36.5248 1.67714 23.5051 20.6574C21.905 23.0444 20.7892 25.2258 21.0319 25.4929C21.1347 25.606 30.8122 35.2934 42.5375 47.0204L63.8562 68.3421C69.619 65.2557 75.7828 59.9196 79.1332 55.2238V55.2238Z" fill="#1A1A1A"/>
<path d="M75.0464 70.8521C79.4544 73.2394 84.9631 71.6013 87.3504 67.1932C89.7377 62.7852 88.0996 57.2765 83.6915 54.8892C79.2835 52.5019 73.7748 54.1401 71.3875 58.5481C69.0002 62.9561 70.6384 68.4648 75.0464 70.8521Z" fill="#FF9F00"/>
<path d="M11.7 96.6061C9.54 96.6061 7.8 97.2961 6.63 98.7061V96.8461H2.16V118.806H6.84V111.276C8.04 112.596 9.69 113.226 11.7 113.226C16.23 113.226 19.74 109.986 19.74 104.916C19.74 99.8461 16.23 96.6061 11.7 96.6061ZM10.89 109.386C8.55 109.386 6.78 107.706 6.78 104.916C6.78 102.126 8.55 100.446 10.89 100.446C13.23 100.446 15 102.126 15 104.916C15 107.706 13.23 109.386 10.89 109.386ZM22.8729 112.986H27.5529V90.7261H22.8729V112.986ZM38.4063 96.6061C35.8263 96.6061 33.2163 97.2961 31.4463 98.5561L33.1263 101.826C34.2963 100.896 36.0663 100.326 37.7763 100.326C40.2963 100.326 41.4963 101.496 41.4963 103.506H37.7763C32.8563 103.506 30.8463 105.486 30.8463 108.336C30.8463 111.126 33.0963 113.226 36.8763 113.226C39.2463 113.226 40.9263 112.446 41.7963 110.976V112.986H46.1763V103.776C46.1763 98.8861 43.3263 96.6061 38.4063 96.6061ZM38.0463 110.076C36.3963 110.076 35.4063 109.296 35.4063 108.126C35.4063 107.046 36.0963 106.236 38.2863 106.236H41.4963V107.886C40.9563 109.356 39.6063 110.076 38.0463 110.076ZM58.3877 113.226C61.7777 113.226 64.4477 111.726 65.6177 109.146L61.9877 107.166C61.1177 108.726 59.8277 109.386 58.3577 109.386C55.9877 109.386 54.1277 107.736 54.1277 104.916C54.1277 102.096 55.9877 100.446 58.3577 100.446C59.8277 100.446 61.1177 101.136 61.9877 102.666L65.6177 100.716C64.4477 98.0761 61.7777 96.6061 58.3877 96.6061C53.1377 96.6061 49.3877 100.056 49.3877 104.916C49.3877 109.776 53.1377 113.226 58.3877 113.226ZM74.8223 96.6061C72.2423 96.6061 69.6323 97.2961 67.8623 98.5561L69.5423 101.826C70.7123 100.896 72.4823 100.326 74.1923 100.326C76.7123 100.326 77.9123 101.496 77.9123 103.506H74.1923C69.2723 103.506 67.2623 105.486 67.2623 108.336C67.2623 111.126 69.5123 113.226 73.2923 113.226C75.6623 113.226 77.3423 112.446 78.2123 110.976V112.986H82.5923V103.776C82.5923 98.8861 79.7423 96.6061 74.8223 96.6061ZM74.4623 110.076C72.8123 110.076 71.8223 109.296 71.8223 108.126C71.8223 107.046 72.5123 106.236 74.7023 106.236H77.9123V107.886C77.3723 109.356 76.0223 110.076 74.4623 110.076ZM91.298 98.9761V96.8461H86.828V112.986H91.508V105.366C91.508 102.276 93.218 100.866 95.798 100.866C96.158 100.866 96.458 100.896 96.848 100.926V96.6061C94.358 96.6061 92.438 97.4161 91.298 98.9761Z" fill="#1A1A1A"/>
<path d="M24.804 125.354C24.804 123.87 25.504 123.17 26.792 123.17C27.464 123.17 28.08 123.366 28.556 123.702L29.704 120.538C28.892 119.978 27.604 119.726 26.372 119.726C22.62 119.726 20.548 121.938 20.548 125.326V125.998H18.224V129.358H20.548V140.726H24.916V129.358H28.668V125.998H24.804V125.354ZM43.0307 119.698H38.3267L34.5467 123.73H37.9627L43.0307 119.698ZM36.6467 125.438C34.2387 125.438 31.8027 126.082 30.1507 127.258L31.7187 130.31C32.8107 129.442 34.4627 128.91 36.0587 128.91C38.4107 128.91 39.5307 130.002 39.5307 131.878H36.0587C31.4667 131.878 29.5907 133.726 29.5907 136.386C29.5907 138.99 31.6907 140.95 35.2187 140.95C37.4307 140.95 38.9987 140.222 39.8107 138.85V140.726H43.8987V132.13C43.8987 127.566 41.2387 125.438 36.6467 125.438ZM36.3107 138.01C34.7707 138.01 33.8467 137.282 33.8467 136.19C33.8467 135.182 34.4907 134.426 36.5347 134.426H39.5307V135.966C39.0267 137.338 37.7667 138.01 36.3107 138.01ZM55.296 140.95C58.46 140.95 60.952 139.55 62.044 137.142L58.656 135.294C57.844 136.75 56.64 137.366 55.268 137.366C53.056 137.366 51.32 135.826 51.32 133.194C51.32 130.562 53.056 129.022 55.268 129.022C56.64 129.022 57.844 129.666 58.656 131.094L62.044 129.274C60.952 126.81 58.46 125.438 55.296 125.438C50.396 125.438 46.896 128.658 46.896 133.194C46.896 137.73 50.396 140.95 55.296 140.95ZM66.743 123.562C68.367 123.562 69.459 122.498 69.459 121.042C69.459 119.698 68.367 118.69 66.743 118.69C65.119 118.69 64.027 119.754 64.027 121.126C64.027 122.498 65.119 123.562 66.743 123.562ZM64.559 140.726H68.927V125.662H64.559V140.726ZM72.9808 140.726H77.3488V119.95H72.9808V140.726Z" fill="#D24319"/>
</svg>
